<?xml version="1.0" encoding="utf-8"?>
<!-- Generator: Adobe Illustrator 24.3.0, SVG Export Plug-In . SVG Version: 6.00 Build 0)  -->
<svg version="1.1" id="Calque_1" xmlns="http://www.w3.org/2000/svg" xmlns:xlink="http://www.w3.org/1999/xlink" x="0px" y="0px"
	 viewBox="0 0 173.9 103.4" style="enable-background:new 0 0 173.9 103.4;" xml:space="preserve">
<g>
	<path d="M163.3,63.9H159v6.4h4.4v-1.1h-3.2v-1.7h2.7v-1h-2.7v-1.5h3.1L163.3,63.9L163.3,63.9z M163,36.7h-4.4V43h4.4v-1.1h-3.2
		v-1.7h2.7v-1h-2.7v-1.5h3.1L163,36.7L163,36.7z M160.4,35.9l0.8,0.2l0.8-1.3h-1.1L160.4,35.9z M156.7,63.9h-1.2v6.4h1.2V63.9z
		 M154.8,43v-5.3h2v-1.1h-5.3v1.1h2V43H154.8z M149.4,64.9h1.1c0.3,0,0.6,0.1,0.8,0.2c0.2,0.1,0.4,0.2,0.6,0.4
		c0.2,0.2,0.3,0.4,0.4,0.7c0.1,0.3,0.1,0.5,0.1,0.8s0,0.6-0.1,0.8c-0.1,0.3-0.2,0.5-0.4,0.7c-0.2,0.2-0.4,0.3-0.6,0.4
		c-0.2,0.1-0.5,0.2-0.8,0.2h-1.1L149.4,64.9L149.4,64.9z M150.5,63.9h-2.3v6.4h2.3c0.5,0,0.9-0.1,1.3-0.2s0.7-0.4,1-0.7
		s0.5-0.6,0.6-1c0.1-0.4,0.2-0.8,0.2-1.3c0-0.4-0.1-0.8-0.2-1.2c-0.1-0.4-0.3-0.7-0.6-1c-0.3-0.3-0.6-0.5-1-0.7
		C151.5,64,151,63.9,150.5,63.9 M148.5,43h1.2v-6.4h-1.2V43z M145.9,42.7c0.2-0.2,0.4-0.3,0.5-0.6c0.1-0.2,0.2-0.5,0.2-0.9
		c0-0.3-0.1-0.5-0.1-0.7c-0.1-0.2-0.2-0.4-0.4-0.5c-0.2-0.1-0.4-0.3-0.6-0.4c-0.3-0.1-0.5-0.2-0.9-0.3c-0.2-0.1-0.4-0.1-0.6-0.2
		c-0.2,0-0.3-0.1-0.4-0.2s-0.2-0.1-0.3-0.2s-0.1-0.2-0.1-0.3c0-0.2,0.1-0.4,0.2-0.5c0.2-0.1,0.4-0.2,0.8-0.2c0.2,0,0.4,0,0.6,0.1
		c0.2,0,0.4,0.1,0.5,0.2c0.2,0.1,0.3,0.1,0.4,0.2s0.2,0.1,0.2,0.2l0.6-1c-0.3-0.2-0.6-0.4-1-0.5s-0.8-0.2-1.2-0.2
		c-0.3,0-0.6,0-0.9,0.1c-0.3,0.1-0.5,0.2-0.8,0.4c-0.2,0.2-0.4,0.4-0.5,0.6s-0.2,0.5-0.2,0.9c0,0.2,0,0.5,0.1,0.6
		c0.1,0.2,0.2,0.3,0.3,0.5c0.1,0.1,0.3,0.2,0.6,0.3c0.2,0.1,0.5,0.2,0.8,0.3c0.2,0.1,0.5,0.1,0.7,0.2c0.2,0.1,0.4,0.1,0.5,0.2
		c0.1,0.1,0.2,0.2,0.3,0.2c0.1,0.1,0.1,0.2,0.1,0.3c0,0.4-0.3,0.7-1,0.7c-0.2,0-0.5,0-0.7-0.1c-0.2-0.1-0.4-0.1-0.6-0.2
		s-0.4-0.2-0.5-0.3s-0.2-0.2-0.3-0.2l-0.6,1.1c0.4,0.3,0.8,0.5,1.3,0.6s0.9,0.2,1.4,0.2c0.3,0,0.6,0,0.9-0.1
		C145.4,42.9,145.7,42.8,145.9,42.7 M141.4,63.9h-1v6.4h1.2v-4.1l3.3,4.1h1v-6.4h-1.2v4.2L141.4,63.9z M137.9,39.8h-1.6v-2.1h1.5
		c0.1,0,0.2,0,0.3,0.1c0.1,0,0.2,0.1,0.3,0.2c0.1,0.1,0.1,0.2,0.2,0.3c0.1,0.1,0.1,0.3,0.1,0.4c0,0.1,0,0.3-0.1,0.4
		c0,0.1-0.1,0.2-0.2,0.3c-0.1,0.1-0.2,0.2-0.3,0.2C138.1,39.8,138,39.8,137.9,39.8 M137.5,40.9l1.3,2.1h1.4l-1.5-2.4
		c0.4-0.2,0.6-0.4,0.8-0.7c0.2-0.3,0.3-0.7,0.3-1.1c0-0.3-0.1-0.5-0.1-0.8c-0.1-0.2-0.2-0.5-0.4-0.7s-0.4-0.4-0.6-0.5
		c-0.2-0.1-0.5-0.2-0.8-0.2h-2.8V43h1.2v-2.1C136.3,40.9,137.5,40.9,137.5,40.9z M134.9,67.8l0.9-2.5l0.9,2.5H134.9z M135.3,63.9
		l-2.4,6.4h1.3l0.6-1.6h2.2l0.6,1.6h1.3l-2.4-6.4H135.3z M129.9,41.9v-1.7h2.7v-1h-2.7v-1.5h3.1v-1.1h-4.4V43h4.4v-1.1H129.9z
		 M126.2,63.9h-1.3v6.4h1.2V66l1.6,3.1h0.7L130,66v4.2h1.2v-6.4h-1.3l-1.9,3.6L126.2,63.9z M124.8,50.3h-1v6.4h1.2v-4.1l3.3,4.1h1
		v-6.4h-1.2v4.2L124.8,50.3z M121,36.7l2.5,6.4h1l2.5-6.4h-1.3l-1.7,4.8l-1.7-4.8H121z M120.7,64.9c0.1,0,0.2,0,0.3,0.1
		c0.1,0.1,0.2,0.1,0.3,0.2c0.1,0.1,0.1,0.2,0.2,0.3c0.1,0.1,0.1,0.3,0.1,0.4c0,0.1,0,0.3-0.1,0.4c0,0.1-0.1,0.2-0.2,0.3
		c-0.1,0.1-0.2,0.2-0.3,0.2c-0.1,0-0.2,0.1-0.3,0.1h-1.6V65L120.7,64.9L120.7,64.9z M120.8,63.9h-2.8v6.4h1.2v-2.1h1.2l1.3,2.1h1.4
		l-1.5-2.4c0.3-0.1,0.6-0.4,0.8-0.7s0.3-0.7,0.3-1.1c0-0.3-0.1-0.5-0.2-0.8s-0.2-0.5-0.4-0.7s-0.4-0.4-0.6-0.5
		C121.3,63.9,121.1,63.9,120.8,63.9 M121.5,50.3h-4.3v6.4h4.4v-1.1h-3.2v-1.7h2.7v-1h-2.7v-1.5h3.1V50.3z M118.1,43h1.2v-6.4h-1.2
		V43z M111.1,67.1c0-0.3,0-0.5,0.1-0.8c0.1-0.2,0.2-0.5,0.3-0.7c0.2-0.2,0.3-0.4,0.6-0.5s0.5-0.2,0.8-0.2c0.3,0,0.6,0.1,0.8,0.2
		c0.2,0.1,0.4,0.3,0.6,0.5c0.2,0.2,0.3,0.4,0.4,0.7c0.1,0.3,0.1,0.5,0.1,0.8c0,0.3,0,0.5-0.1,0.8c-0.1,0.2-0.2,0.5-0.4,0.7
		c-0.2,0.2-0.3,0.4-0.6,0.5c-0.2,0.1-0.5,0.2-0.8,0.2s-0.6-0.1-0.8-0.2c-0.2-0.1-0.4-0.3-0.6-0.5c-0.2-0.2-0.3-0.4-0.4-0.7
		C111.2,67.6,111.1,67.3,111.1,67.1 M110.1,65.8c-0.2,0.4-0.2,0.8-0.2,1.2c0,0.4,0.1,0.8,0.2,1.2c0.2,0.4,0.4,0.7,0.6,1
		c0.3,0.3,0.6,0.5,1,0.7c0.4,0.2,0.8,0.3,1.3,0.3c0.4,0,0.9-0.1,1.2-0.3c0.4-0.2,0.7-0.4,1-0.7c0.3-0.3,0.5-0.6,0.7-1
		c0.2-0.4,0.2-0.8,0.2-1.2c0-0.4-0.1-0.8-0.2-1.2c-0.2-0.4-0.4-0.7-0.6-1c-0.3-0.3-0.6-0.6-1-0.7c-0.4-0.2-0.8-0.3-1.3-0.3
		c-0.4,0-0.9,0.1-1.2,0.3c-0.4,0.2-0.7,0.4-1,0.7C110.5,65.1,110.3,65.4,110.1,65.8 M114.5,36.7v4.2l-3.3-4.2h-1V43h1.2v-4.1
		l3.3,4.1h1v-6.4C115.8,36.7,114.5,36.7,114.5,36.7z M111.3,54.2l0.9-2.5l0.9,2.5H111.3z M111.7,50.3l-2.4,6.4h1.3l0.6-1.6h2.2
		l0.6,1.6h1.3l-2.4-6.4H111.7z M103.5,63.9h-1v6.4h1.2v-4.1l3.3,4.1h1v-6.4h-1.2v4.2L103.5,63.9z M106.8,36.7v3.2
		c0,0.3,0,0.5-0.1,0.8s-0.1,0.5-0.3,0.7s-0.3,0.3-0.5,0.5c-0.2,0.1-0.4,0.2-0.7,0.2s-0.5-0.1-0.7-0.2c-0.2-0.1-0.4-0.3-0.5-0.5
		s-0.2-0.4-0.3-0.7s-0.1-0.5-0.1-0.8v-3.2h-1.2v3.2c0,0.4,0.1,0.8,0.2,1.2s0.3,0.7,0.5,1c0.2,0.3,0.5,0.5,0.9,0.7s0.8,0.3,1.3,0.3
		c0.5,0,0.9-0.1,1.3-0.2c0.3-0.2,0.6-0.4,0.9-0.7c0.2-0.3,0.4-0.6,0.5-1c0.1-0.4,0.2-0.8,0.2-1.2v-3.2L106.8,36.7L106.8,36.7z
		 M102.3,52.2c-0.1,0.4-0.2,0.8-0.2,1.2c0,0.4,0.1,0.8,0.2,1.2s0.4,0.7,0.6,1c0.3,0.3,0.6,0.6,1,0.8c0.4,0.2,0.8,0.3,1.2,0.3
		c0.3,0,0.5,0,0.8-0.1c0.3-0.1,0.5-0.2,0.8-0.3c0.2-0.1,0.4-0.3,0.6-0.5s0.3-0.4,0.4-0.6l-1-0.6c-0.1,0.2-0.2,0.3-0.3,0.4
		s-0.2,0.2-0.4,0.3c-0.1,0.1-0.3,0.1-0.4,0.2c-0.2,0-0.3,0-0.4,0c-0.3,0-0.5-0.1-0.8-0.2s-0.4-0.3-0.6-0.5c-0.2-0.2-0.3-0.4-0.4-0.7
		s-0.1-0.5-0.1-0.8c0-0.2,0-0.5,0.1-0.8s0.2-0.5,0.3-0.7c0.2-0.2,0.3-0.4,0.6-0.5c0.2-0.1,0.5-0.2,0.8-0.2c0.1,0,0.3,0,0.4,0
		s0.3,0.1,0.4,0.2s0.3,0.2,0.4,0.3c0.1,0.1,0.2,0.3,0.3,0.5l0.9-0.7c-0.2-0.4-0.5-0.8-1-1s-0.9-0.4-1.5-0.4c-0.5,0-0.9,0.1-1.3,0.3
		c-0.4,0.2-0.7,0.4-1,0.7C102.7,51.5,102.5,51.9,102.3,52.2 M80.9,56L80.9,56C80.9,56,80.9,56,80.9,56c0,0.3-0.2,0.5-0.5,0.5
		c-0.1,0-0.3,0-0.4-0.2l-9-10.1c-0.1-0.1-0.1-0.2-0.1-0.3c0-0.2,0.2-0.5,0.5-0.5h1.3c0.2,0,0.3,0.1,0.4,0.2l6.2,7v-6.8
		c0-0.2,0.2-0.5,0.4-0.5h0.9c0.2,0,0.4,0.2,0.4,0.5V56z M67.5,55.7c0,0.2-0.2,0.5-0.5,0.5h-6.7c-0.2,0-0.5-0.2-0.5-0.5v-0.9
		c0-0.2,0.2-0.5,0.5-0.5H67c0.2,0,0.5,0.2,0.5,0.5V55.7z M67.5,51.2c0,0.2-0.2,0.5-0.5,0.5h-6.7c-0.2,0-0.5-0.2-0.5-0.5v-0.9
		c0-0.2,0.2-0.5,0.5-0.5H67c0.2,0,0.5,0.2,0.5,0.5V51.2z M67.5,46.7c0,0.2-0.2,0.5-0.5,0.5h-6.7c-0.2,0-0.5-0.2-0.5-0.5v-0.9
		c0-0.2,0.2-0.5,0.5-0.5H67c0.2,0,0.5,0.2,0.5,0.5V46.7z M57.5,55.7c0,0.2-0.2,0.4-0.5,0.4h-1.1c-0.2,0-0.4-0.1-0.4-0.3
		c0,0-5-9-5.1-9.1c0-0.1-0.1-0.2-0.1-0.2s0.1-0.2,0.1-0.2l0.5-1c0.1-0.2,0.2-0.3,0.4-0.3h0h0c0.2,0,0.3,0.1,0.4,0.3l5.7,10.3
		C57.4,55.4,57.5,55.6,57.5,55.7 M53.2,40c0,0.3-0.2,0.5-0.5,0.5l0,0h-0.5c-2.9,0-5.1,0.9-7,2.6c-1.7,1.6-2.9,3.7-3.2,6.2l0,0
		c0,0.2-0.2,0.5-0.5,0.5h-1.1c-0.2,0-0.5-0.2-0.5-0.5l0,0l0,0l0,0c0.3-3,1.8-5.6,3.9-7.6c2.2-2,5-3.1,8.1-3.1h0.2h0.3
		c0.3,0,0.4,0.2,0.5,0.5L53.2,40z M37.4,45.2c0,0.2-0.2,0.5-0.5,0.5h-1.2c-0.2,0-0.5-0.2-0.5-0.5v-0.9c0-0.2,0.2-0.5,0.5-0.5H37
		c0.2,0,0.5,0.2,0.5,0.5V45.2z M29.3,45.5l6.2,7v-4.3c0-0.2,0.2-0.5,0.5-0.5h0.9c0.2,0,0.5,0.2,0.5,0.5v7.6l0,0c0,0,0,0,0,0
		c0,0.3-0.2,0.5-0.5,0.5c-0.1,0-0.3,0-0.4-0.2l-9.1-10.1c-0.1-0.1-0.1-0.2-0.1-0.3c0-0.2,0.2-0.5,0.5-0.5H29
		C29.1,45.3,29.2,45.4,29.3,45.5 M24.7,54.5c1,0,1.9-0.3,2.7-0.9v-3.5c0,0,0,0,0,0c0,0,0-0.1,0-0.1c0-0.2,0.2-0.4,0.4-0.4h0
		c0.1,0,0.3,0.1,0.4,0.2l0.8,1c0.1,0.1,0.2,0.2,0.2,0.4v3.1c0,0,0,0.2-0.2,0.3c-1.1,1-2.7,1.7-4.3,1.7c-2.5,0-4.5-2-4.5-4.4v-6
		c0-0.3,0.2-0.5,0.5-0.5h0.9c0.2,0,0.4,0.2,0.4,0.5v6C22,53.2,23.2,54.5,24.7,54.5 M52.9,55.3c0.1,0.1,0.1,0.4,0,0.5
		c-0.1,0.2-0.2,0.2-0.4,0.2h-6.3c-0.1,0-0.3,0-0.4-0.1c-0.2-0.1-0.2-0.4,0-0.6l3-6.1c0.1-0.2,0.2-0.3,0.5-0.3s0.3,0.1,0.4,0.3
		l0.5,0.9c0,0,0.1,0.3,0.1,0.4s0,0.2-0.1,0.2c0,0.1-1.1,2.2-1.7,3.5h3.6c0.1,0,0.2,0,0.3,0.1c0.1,0,0.2,0.2,0.2,0.2L52.9,55.3
		L52.9,55.3z M40,52L40,52c0-0.2,0.2-0.5,0.5-0.5h1.1c0.3,0,0.5,0.2,0.5,0.5l0,0c0.3,2.5,1.5,4.7,3.2,6.3c1.9,1.7,3.9,2.5,6.8,2.5
		h0.5l0,0c0.2,0,0.5,0.2,0.5,0.5l-0.2,0.9c0,0.3-0.2,0.5-0.5,0.5h-0.3h-0.1c-3.1,0-6-1.1-8.1-3.1C41.8,57.6,40.4,55,40,52L40,52
		L40,52L40,52z M71,50.2C71,50.2,71,50.1,71,50.2c0.1-0.3,0.2-0.5,0.4-0.5h0c0.1,0,0.3,0.1,0.4,0.2l0.8,1c0.1,0.1,0.2,0.2,0.2,0.4
		v4.5c0,0.2-0.2,0.5-0.4,0.5h-0.9c-0.2,0-0.4-0.2-0.4-0.5V50.2C71,50.2,71,50.2,71,50.2 M91,51.6c0-22.4-18.1-40.5-40.5-40.5
		S10,29.2,10,51.6s18.1,40.5,40.5,40.5C72.9,92.1,91,73.9,91,51.6"/>
</g>
</svg>
